<?xml version="1.0" encoding="utf-8"?>
<svg version="1.1" xmlns:xlink="http://www.w3.org/1999/xlink" width="14px" height="15px" xmlns="http://www.w3.org/2000/svg">
  <g transform="matrix(1 0 0 1 -12 -93 )">
    <path d="M 14 2.35372340425533  C 14 1.27659574468086  13.3456090651558 0.458776595744695  12.1359773371105 0.458776595744695  L 11.2039660056657 0.458776595744695  C 10.9461756373938 0.458776595744695  10.6487252124646 0.618351063829778  10.6487252124646 0.877659574468083  C 10.6487252124646 1.13696808510639  10.9461756373938 1.39627659574467  11.2039660056657 1.39627659574467  L 12.1359773371105 1.39627659574467  C 12.6912181303116 1.39627659574467  13.0679886685552 1.77526595744681  13 2.33377659574469  L 13 13.125  C 13.0679886685552 13.6835106382979  12.6912181303116 14.0625  12.1359773371105 14  L 2.10198300283287 14  C 1.54674220963173 14.0625  0.932011331444755 13.6835106382979  1 13.125  L 1 2.33377659574469  C 0.932011331444755 1.77526595744681  1.30878186968837 1.39627659574467  1.86402266288951 1.39627659574467  L 3.03399433427762 1.39627659574467  C 3.29178470254956 1.39627659574467  3.39093484419263 1.13696808510639  3.39093484419263 0.877659574468083  C 3.39093484419263 0.618351063829778  3.29178470254956 0.458776595744695  3.03399433427762 0.458776595744695  L 1.86402266288951 0.458776595744695  C 0.555240793201136 0.458776595744695  0 1.27659574468086  0 2.35372340425533  L 0 13.0252659574468  C 0 14.1821808510638  0.694050991501427 15  1.96317280453258 15  L 12.0368271954674 15  C 13.3059490084986 15  14 14.3218085106383  14 13.0252659574468  L 14 2.35372340425533  Z M 3.50991501416431 4.20877659574469  C 3.25212464589234 4.20877659574469  3.03399433427762 4.42819148936172  3.03399433427762 4.6875  C 3.03399433427762 4.94680851063831  3.25212464589234 5.16622340425533  3.50991501416431 5.16622340425533  L 10.5099150141643 5.16622340425533  C 10.7677053824362 5.16622340425533  10.985835694051 4.94680851063831  10.985835694051 4.6875  C 10.985835694051 4.42819148936172  10.7677053824362 4.20877659574469  10.5099150141643 4.20877659574469  L 3.50991501416431 4.20877659574469  Z M 10.985835694051 7.28058510638297  C 10.9660056657224 7.00132978723406  10.7478753541076 6.80186170212767  10.4900849858357 6.80186170212767  L 3.50991501416431 6.80186170212767  C 3.25212464589234 6.80186170212767  3.03399433427762 7.02127659574469  3.03399433427762 7.28058510638297  C 3.03399433427762 7.53989361702128  3.25212464589234 7.75930851063831  3.50991501416431 7.75930851063831  L 10.5099150141643 7.75930851063831  C 10.7677053824362 7.75930851063831  10.985835694051 7.53989361702128  10.985835694051 7.28058510638297  Z M 10.985835694051 10.093085106383  C 10.9660056657224 9.81382978723406  10.7478753541076 9.61436170212767  10.4900849858357 9.61436170212767  L 3.50991501416431 9.61436170212767  C 3.25212464589234 9.61436170212767  3.03399433427762 9.83377659574467  3.03399433427762 10.093085106383  C 3.03399433427762 10.3523936170213  3.25212464589234 10.5718085106383  3.50991501416431 10.5718085106383  L 10.5099150141643 10.5718085106383  C 10.7677053824362 10.5718085106383  10.985835694051 10.3523936170213  10.985835694051 10.093085106383  Z M 4.67988668555242 0.817819148936167  C 4.67988668555242 1.25664893617022  4.9971671388102 1.63563829787236  5.39376770538246 1.63563829787236  L 8.64589235127477 1.63563829787236  C 9.02266288951841 1.63563829787236  9.33994334277622 1.25664893617022  9.33994334277622 0.817819148936167  C 9.33994334277622 0.378989361702139  9.02266288951841 0  8.62606232294615 0  L 5.39376770538246 0  C 4.9971671388102 0  4.67988668555242 0.378989361702139  4.67988668555242 0.817819148936167  Z " fill-rule="nonzero" fill="#cccccc" stroke="none" transform="matrix(1 0 0 1 12 93 )" />
  </g>
</svg>