<?xml version="1.0" encoding="utf-8"?>
<svg version="1.1" xmlns:xlink="http://www.w3.org/1999/xlink" width="10px" height="7px" xmlns="http://www.w3.org/2000/svg">
  <g transform="matrix(1 0 0 1 -13 -58 )">
    <path d="M 8.9712449645001 0.178441699950397  L 3.66666523993141 5.52927827473059  L 1.02647874164998 2.75744571508267  C 0.790605039207613 2.51963960289224  0.412674113932343 2.52187976679882  0.176800411489979 2.75978545282261  C -0.0589499171687935 2.99771601463729  -0.0589499171687935 3.38108315284533  0.176899107013905 3.61901371466003  L 3.22761295609612 6.82185427988679  C 3.45346838854303 7.04955474337184  3.81096793918749 7.05878920937246  4.0480754144952 6.85062797292525  C 4.07447826240486 6.83146211242767  4.10014085009827 6.81055388652055  4.12402679575792 6.78645965129455  L 9.82302070152529 1.0376699617878  C 10.0589930994916 0.79973939997312  10.0589930994916 0.416372261765076  9.82302070152529 0.178342126117016  C 9.58727037286651 -0.0594639684059359  9.2070939886828 -0.0594639684059359  8.9712449645001 0.178441699950397  Z " fill-rule="nonzero" fill="#cccccc" stroke="none" transform="matrix(1 0 0 1 13 58 )" />
  </g>
</svg>