<?xml version="1.0" encoding="utf-8"?>
<svg version="1.1" xmlns:xlink="http://www.w3.org/1999/xlink" width="14px" height="16px" xmlns="http://www.w3.org/2000/svg">
  <g transform="matrix(1 0 0 1 -11 -52 )">
    <path d="M 12.3727666281005 2.484147734375  L 10.5056313738826 2.484147734375  C 10.0764685754922 1.053728765625  8.66715413054586 0  7.00003538414613 0  C 5.33294022717717 0  3.9236257654889 1.053728765625  3.49443939440964 2.484147734375  L 1.62711544148771 2.484147734375  C 0.728975271982782 2.484147734375  0 3.16448828125  0 4.00272964062501  L 0 14.481352046875  C 0 15.319571390625  0.729069612963847 16  1.62711544148771 16  L 12.3727666113585 16  C 13.2710247280172 16  14 15.31957140625  14 14.481352046875  L 14 4.00272964062501  C 14 3.16448828125  13.2710247280172 2.484147734375  12.3727666281005 2.484147734375  Z M 7.00003538414613 1.132580109375  C 7.99179177498734 1.132580109375  8.84367814359201 1.68927240625  9.22033659486811 2.48414771874999  L 4.78020591181342 2.484147734375  C 5.15768990945621 1.68927240625  6.01077918835183 1.132580109375  7.00003538414613 1.132580109375  Z M 12.9152642354851 14.481352046875  C 12.9152642354851 14.75900478125  12.6702911780388 14.98756803125  12.3727666281005 15  L 1.62711544148771 15  C 1.32970882196123 14.98756803125  1.08480651606519 14.75900478125  1 14.481352046875  L 1 4.00272964062501  C 1.08480653280716 3.725142953125  1.32970882196123 3.496491640625  1.62711545822967 3.496491640625  L 3.35947543802781 3.496491640625  L 3.35947543802781 5.020576859375  L 4.60127606144339 5.020576859375  L 4.60127606144339 3.496491640625  L 9.42433928119317 3.496491640625  L 9.42627339686975 3.496491640625  L 9.42627339686975 5.020576859375  L 10.6680740202853 5.020576859375  L 10.6680740202853 3.496491640625  L 12.3727666281005 3.496491640625  C 12.6703855357618 3.496491640625  12.9152642354851 3.725142953125  13 4.00272964062501  L 13 14.481352046875  L 12.9152642354851 14.481352046875  Z " fill-rule="nonzero" fill="#cccccc" stroke="none" transform="matrix(1 0 0 1 11 52 )" />
  </g>
</svg>