<?xml version="1.0" encoding="utf-8"?>
<svg version="1.1" xmlns:xlink="http://www.w3.org/1999/xlink" width="14px" height="16px" xmlns="http://www.w3.org/2000/svg">
  <g transform="matrix(1 0 0 1 -12 -133 )">
    <path d="M 0.616457541436999 4.16235575889567  C 0.560514284783038 4.1907166185018  0.504571028129075 4.21907749524493  0.420656134697213 4.21907749524493  C 0.280798001513197 4.21907749524493  0.11296823155131 4.13399489928955  0.0570249748973487 3.99219054984795  C -0.0548615384105754 3.79366448119413  0.0290533550212863 3.53843881719388  0.252826364735328 3.42497318635552  L 6.68630086303916 0.050029899280986  C 6.88210225287714 -0.0634135734175345  7.13384691627086 0.0216690396748618  7.24573342957884 0.248555967934834  C 7.35761994288677 0.475442896194807  7.27370504945491 0.702329858728774  7.04993203974086 0.815795489567194  L 0.616457541436999 4.16235575889567  Z M 7.24573342957884 15.796515612649  C 7.16181855304879 15.9383199449536  7.02196040296293 15.9950416813028  6.88210226977895 15.9950416984398  C 6.79818739324889 15.9950416984398  6.74224413659496 15.9666808388338  6.6583292431631 15.9382978039507  L 0.196883108081367 11.9394375580374  C 0.00108171824338754 11.8259940853389  -0.0548615384105754 11.5423854035926  0.0570249748973487 11.3438593349388  C 0.168911488205273 11.145333266285  0.448627771475114 11.0885893717958  0.644429161313061 11.2020549854972  L 7.1058752963948 15.2009152314105  C 7.30167668623278 15.314358704109  7.35761994288677 15.5979895439951  7.24573342957884 15.796515612649  Z M 13.9416386202076 11.2562951472735  C 14.0265587313957 11.3982545865575  14.010846546076 11.5524003344438  13.9454410016417 11.6804673911749  C 13.9062370189952 11.7572633055063  13.8552325026112 11.7954618479815  13.7911600032795 11.8592516368081  L 7.2701648994747 15.9381870132512  C 7.07932408703454 16.0653456205204  6.80489619160717 15.986289695878  6.68341628324286 15.7926160028074  C 6.56193637487854 15.5989422925998  6.64301039657331 15.3167738213992  6.83385120901347 15.189637355133  L 13.3549118580054 11.1107019786899  C 13.5456871083566 10.9835655295607  13.820115003784 11.0626435952059  13.9416386202076 11.2562951472735  Z " fill-rule="nonzero" fill="#cccccc" stroke="none" transform="matrix(1 0 0 1 12 133 )" />
  </g>
</svg>