<?xml version="1.0" encoding="utf-8"?>
<svg version="1.1" xmlns:xlink="http://www.w3.org/1999/xlink" width="14px" height="13px" xmlns="http://www.w3.org/2000/svg">
  <g transform="matrix(1 0 0 1 -12 -136 )">
    <path d="M 7.46128104827226 12.5538835336666  C 7.46128104827226 12.791801476237  7.2671213261174 13  7.04522449122038 13  C 6.82332765632336 13  6.6291679341685 12.791801476237  6.6291679174084 12.5538602959525  L 6.6291679174084 4.31514695555813  C 6.6291679174084 4.0772057752736  6.82332763956326 3.86900725151054  7.04522449122038 3.86900723353858  C 7.2671213261174 3.86900723353858  7.46128104827226 4.07720575730164  7.46128104827226 4.31514695555813  L 7.46128104827226 12.5538835336666  Z M 0.83211313086386 8.2709190688027  C 0.83211313086386 8.50886024908721  0.637953408708999 8.71705877285021  0.416056557051883 8.71705877285021  C 0.194159722154861 8.71705877285021  0 8.50886024908721  0 8.2709190688027  L 0 0.508088071005403  C 0 0.270146890720866  0.194159722154861 0.0619483669578642  0.416056557051883 0.0619483669578642  C 0.637953391948903 0.0619483669578642  0.832113114103764 0.270146890720866  0.83211313086386 0.508088071005403  L 0.83211313086386 8.2709190688027  Z M 14 8.20897070184481  C 14 8.44691188212934  13.8058402778451 8.65511040589234  13.5839651137459 8.65511040589234  C 13.3620682788489 8.65511040589234  13.1678868858963 8.44691188212934  13.1678868858963 8.20897070184481  L 13.1678868858963 0.446139722019524  C 13.1678868858963 0.208198541734987  13.3620682788489 0  13.5839651137459 0  C 13.8058402778451 0  14 0.208198523763002  14 0.446139722019524  L 14 8.20897070184481  Z M 5.82479189928677 6.18893374131289  C 5.74158059458041 6.33764697000481  5.60289506438974 6.3971322650759  5.46420953419907 6.3971322650759  C 5.38099822949272 6.3971322650759  5.32552402076843 6.36738962652629  5.24231269930205 6.33762373229075  L 2.13575702750379 4.40435165146482  C 1.94159730534896 4.28538106132251  1.85838598388252 4.01769724248837  1.99707149731312 3.77975606220383  C 2.10801991476163 3.57155753844086  2.35765384564075 3.48232958684815  2.57955069729787 3.63106605325407  L 5.68610636909609 5.56433815205193  C 5.88026609125096 5.68330874219424  5.96347741271734 5.95099256102839  5.82479189928677 6.18893374131289  Z " fill-rule="nonzero" fill="#cccccc" stroke="none" transform="matrix(1 0 0 1 12 136 )" />
  </g>
</svg>