<?xml version="1.0" encoding="utf-8"?>
<svg version="1.1" xmlns:xlink="http://www.w3.org/1999/xlink" width="16px" height="16px" xmlns="http://www.w3.org/2000/svg">
  <g transform="matrix(1 0 0 1 -10 -212 )">
    <path d="M 8.36100934696896 15.4819964198975  C 8.02709222888824 15.8159840612739  7.5831099390473 16  7.1109573098479 16  C 6.63867571501699 16  6.19484082732949 15.8159102966568  5.86120005902927 15.4816828887361  L 0.517918016575445 10.1382493957329  C 0.183816641301837 9.80424329968554  -0.000147295659225222 9.36021124885133  0 8.8879995643868  C 0.000147472638778012 8.4161936123495  0.184148264639314 7.97269636850575  0.518120674281462 7.63918822417361  C 0.578809437456052 7.57847661021736  6.61765388497831 1.53896196544821  7.32904254976436 0.826633260168023  C 8.05568630217625 0.100860219022024  8.83277506126952 0.000848338151797634  9.56426434214747 0.000848338151797634  C 10.133216831515 0.000848338151797634  14.2327294237822 0  14.2327294237822 0  C 14.7046241217186 0  15.1483300437746 0.183757753555255  15.4821918882984 0.517413445143745  C 15.8165327763174 0.851493305808049  16.000423021204 1.29567290389861  15.99999926927 1.76805057226812  C 15.99999926927 1.767810823746  15.9987464319858 5.64557152632256  15.9987464319858 6.32210399125489  C 15.9981200223459 7.0754111850818  15.8995514443631 7.94328113698953  15.1733867174422 8.67119346016381  C 14.8074670560757 9.03561067313541  8.42543816747002 15.4175594855238  8.36100934696896 15.4819964198975  Z M 14.8695007671265 1.13179578696486  C 14.6993548593229 0.961795900436755  14.473236733175 0.868165028398266  14.2328399708961 0.868165028398266  C 14.2329136629706 0.868165028398266  10.1332905235896 0.869013366550064  9.56430119718691 0.869013366550064  C 8.8994516430805 0.869013366550064  8.42088744331078 0.96255203732278  7.94206531227806 1.44079430813792  C 7.23087930519797 2.15288326489599  1.19185061848725 8.19263765818732  1.1309223425672 8.25355212934602  C 0.960923818912638 8.4232938307033  0.867385008584437 8.64865711710587  0.867329735027436 8.88825774955768  C 0.867256042952946 9.12828255108548  0.960850108833725 9.35405156991521  1.13086706901024 9.52405145644326  L 6.47446233428836 14.8677615892883  C 6.64451613149993 15.0381487715949  6.8704868734989 15.1318349716017  7.1109573098479 15.1318349716017  C 7.35157514835028 15.1318349716017  7.57784065864729 15.0380565523068  7.74809713156926 14.867780025937  C 7.81254438859223 14.8033430915634  14.1951812503159 8.42078568954531  14.5607692883449 8.05673731768132  C 15.0334377980746 7.58288428488152  15.1309193414397 7.02030597037822  15.1315088960402 6.32173511410303  C 15.1315088960402 5.64551618033204  15.1327617333244 1.76753416588213  15.1327617333244 1.76753416588213  C 15.1330012460699 1.52734338044928  15.0394808722636 1.30166658090758  14.8695007671265 1.13179578696486  Z M 12.90142743643 6.08195006109736  C 12.533702184205 6.44926271100542  12.0458891339634 6.65125977086905  11.5273079592028 6.65125977086905  C 11.0086899294026 6.65125977086905  10.520858442639 6.44928116567633  10.1536859439883 6.08254021407839  C 9.78664241096903 5.71513536290456  9.58480716469969 5.22710029400167  9.58500982240564 4.70800860920303  C 9.5852493351511 4.18888005110699  9.78758204343334 3.70069743494781  10.1547545420841 3.33342169438157  C 10.5212269390204 2.96657010486911  11.0089478606656 2.76446238906874  11.5280080789215 2.76446238906874  C 12.0469577500635 2.76446238906874  12.5348076553446 2.96651477690068  12.9016669491754 3.33336636641326  C 13.6585261265453 4.0901406954867  13.6584524164664 5.32316554258108  12.90142743643 6.08195006109736  Z M 12.2887362972538 3.94760119702238  C 12.0856297771782 3.74447917718726  11.8154782149191 3.63262741746701  11.5280080609171 3.63262741746701  C 11.2406484540291 3.63262741746701  10.9706811309585 3.74444226784556  10.7679246887468 3.94741677646857  C 10.5644865453337 4.15088920076249  10.4524500160573 4.42110384338548  10.4523210504258 4.70835903168404  C 10.4522105033118 4.99542979942879  10.5638232806543 5.26533091089044  10.7666350144275 5.46832385616221  C 10.9697415345031 5.67118769082646  11.2399852073542 5.78309476049293  11.5273079592027 5.78309476049293  C 11.8145938740162 5.78309476049293  12.0848743839024 5.67118769082646  12.2882756902804 5.46799188835212  C 12.7068512465944 5.04841415073071  12.7073118355634 4.36610928461857  12.2887362972538 3.94760119702238  Z " fill-rule="nonzero" fill="#cccccc" stroke="none" transform="matrix(1 0 0 1 10 212 )" />
  </g>
</svg>