<?xml version="1.0" encoding="utf-8"?>
<svg version="1.1" xmlns:xlink="http://www.w3.org/1999/xlink" width="16px" height="16px" xmlns="http://www.w3.org/2000/svg">
  <g transform="matrix(1 0 0 1 -10 -172 )">
    <path d="M 16 7.99999083970502  C 16 5.86311569996616  15.1678660468464 3.85415651288247  13.6568595030251 2.34317175165882  C 12.145852959204 0.832132010756652  10.1368891871051 0  8.00000915136158 0  C 5.86312909770933 0  3.85414702288738 0.832132028665399  2.34315879969803 2.34317176956748  C 0.832152255876792 3.85415653079113  0 5.86313402055609  0 8.00000916029492  C 0 9.55682743495086  0.447652032495588 11.0661078619605  1.29455680259198 12.3647300872249  C 1.46244234533074 12.6221197978472  1.8072482065486 12.6946360595618  2.06467514816559 12.5268608608381  C 2.3221204104145 12.3589757027575  2.39471015662322 12.0141706315565  2.22682461388447 11.7567076206657  C 1.49815993048889 10.6394402165242  1.11299996736359 9.34035985115113  1.11299996736359 8.00000916029492  C 1.11299996736359 4.20251685304831  4.20250814330711 1.11301575576442  7.99999083072969 1.11301575576442  C 11.7975101594161 1.11301575576442  14.8869816940958 4.20253519154687  14.8869816940958 8.00000916029492  C 14.8869816940958 11.797483129043  11.7975101415073 14.8870025648255  8.00000915136158 14.8870025648255  C 6.74252609049715 14.8870025648255  5.51227561918584 14.5450563652682  4.44230537187858 13.8982009459408  C 4.17928895411427 13.7391489626851  3.83715871104532 13.823485550815  3.67816132526561 14.0864830274593  C 3.51914561885405 14.3495171631921  3.60344575895203 14.6916466223747  3.86644383817571 14.8506253232708  C 5.11016398548227 15.6025441143279  6.53950936609061 16  7.99999083072969 16  C 10.1368892050138 16  12.145852959204 15.1678679713346  13.6568595209339 13.6568282304325  C 15.1678477441232 12.1458434692089  16 10.1368659794439  16 7.99999083970502  Z " fill-rule="nonzero" fill="#cccccc" stroke="none" transform="matrix(1 0 0 1 10 172 )" />
  </g>
</svg>