<?xml version="1.0" encoding="utf-8"?>
<svg version="1.1" xmlns:xlink="http://www.w3.org/1999/xlink" width="9px" height="11px" xmlns="http://www.w3.org/2000/svg">
  <g transform="matrix(1 0 0 1 -13 -173 )">
    <path d="M 2.70770337880771 6.12580827881661  C 1.11577537754857 6.84866775209557  0 8.50341566344667  0 10.4247773039843  C 0 10.7424596497516  0.247250947851485 11  0.552241063112509 11  C 0.857231178373565 11  1.10448212622502 10.7424596497516  1.10448212622502 10.4247773039843  C 1.10448212622502 8.47454749745282  2.62770509315373 6.88797314622332  4.50000000000001 6.88797314622332  C 6.37229490684624 6.88797314622332  7.89551787377492 8.47456643414662  7.89551787377492 10.4247773039843  C 7.89551787377492 10.7424596497516  8.1427688216264 11  8.44775893688749 11  C 8.75274905214852 11  9 10.7424596497516  9 10.4247773039843  C 9 8.50341566344667  7.8842246224514 6.84866775209557  6.29229658564948 6.12580827881661  C 7.14938228748845 5.52385791109174  7.71418958380192 4.50335709314285  7.71418958380192 3.34796774314856  C 7.71418958380192 1.50188305167401  6.27231064044327 0  4.49999998222863 0  C 2.72768932401392 0  1.2858103806553 1.50188305167401  1.2858103806553 3.34796774314856  C 1.2858103806553 4.50333815644905  1.85061767696874 5.52385791109174  2.70770337880771 6.12580827881661  Z M 4.49996363975204 5.54550903095944  C 3.33665120102258 5.54550903095944  2.39025618217515 4.5597106392409  2.39025618217515 3.34796774314856  C 2.39025618217515 2.13624380226099  3.33666938114657 1.15042645533771  4.49998181987603 1.15042645533771  C 5.66329425860548 1.15042645533771  6.60968927745291 2.13624380226099  6.60968927745291 3.34796774314856  C 6.60968927745291 4.55969168403612  5.66327607848149 5.54550903095944  4.49996363975204 5.54550903095944  Z " fill-rule="nonzero" fill="#cccccc" stroke="none" transform="matrix(1 0 0 1 13 173 )" />
  </g>
</svg>