<?xml version="1.0" encoding="utf-8"?>
<svg version="1.1" xmlns:xlink="http://www.w3.org/1999/xlink" width="20px" height="20px" xmlns="http://www.w3.org/2000/svg">
  <g transform="matrix(1 0 0 1 -1395 -26 )">
    <path d="M 11 11.1111111197917  L 11 0  L 9 0  L 9 11.1111111197917  L 11 11.1111111197917  Z M 20 10  C 20 6.95555554687502  18.6333333333333 4.24444445312499  16.4777777864583 2.41111111979165  L 14.9 3.98888888020835  C 16.655555546875 5.4  17.7777777864583 7.56666666666667  17.7777777864583 10  C 17.7777777864583 14.3  14.3 17.7777777864583  10 17.7777777864583  C 5.7 17.7777777864583  2.22222221354168 14.3  2.22222221354168 10  C 2.22222221354168 7.56666666666667  3.34444445312498 5.4  5.08888888020835 3.97777778645832  L 3.52222221354168 2.41111111979165  C 1.36666666666667 4.24444445312499  0 6.95555554687502  0 10  C 0 15.5222222135417  4.47777778645832 20  10 20  C 15.5222222135417 20  20 15.5222222135417  20 10  Z " fill-rule="nonzero" fill="#999999" stroke="none" transform="matrix(1 0 0 1 1395 26 )" />
  </g>
</svg>