<?xml version="1.0" encoding="utf-8"?>
<svg version="1.1" xmlns:xlink="http://www.w3.org/1999/xlink" width="20px" height="20px" xmlns="http://www.w3.org/2000/svg">
  <g transform="matrix(1 0 0 1 -1150 -29 )">
    <path d="M 20 10  C 20 4.47673142433723  15.5232457030227 0  10 0  C 4.47714286381826 0  0 4.47673142433723  0 10  C 0 15.5232685756628  4.47714286381826 20  10 20  C 15.5232685756627 20  20 15.5232685756628  20 10  Z M 19.1666514219628 10  C 19.1666514219628 12.2241371208335  18.3699428475716 14.2650971184132  17.0479085671219 15.8536457006891  C 16.1340114186562 15.4719771272171  13.9762285635395 14.7233142753762  12.6411885738779 14.3294399766778  C 12.5268342862178 14.2936228296573  12.5093485773403 14.2879085562217  12.5093485773403 13.8134856870948  C 12.5093485773403 13.4220571079697  12.6700800016597 13.0281828316079  12.8271542829392 12.6944914074393  C 12.9976228626082 12.331519988648  13.1994514175991 11.722011397088  13.2714514281777 11.1751313996312  C 13.4744914289718 10.9399085445531  13.7503771472735 10.4760456874015  13.9273600067003 9.5922513901841  C 14.0831771415696 8.8126628081327  14.0103999973089 8.52939425284088  13.9074057279461 8.263382814046  C 13.8964571491297 8.23487995310536  13.8850514525621 8.20719994879031  13.8773257270011 8.17951996681179  C 13.8382628764218 7.99725710139741  13.8915885826232 7.04756567855118  14.0250285918051 6.31099425574643  C 14.1174171709224 5.80566855138559  14.0018285871556 4.73145139574499  13.3060343014281 3.84191997478864  C 12.8665828723926 3.2804114051721  12.025554291738 2.59033139288022  10.4898742979121 2.49426284275618  L 9.64756572054399 2.49510854968517  C 8.13798856869235 2.59033141521676  7.29693716007081 3.2804114051721  6.85748573103533 3.84191997478864  C 6.16166859500446 4.73145139574499  6.04610288387765 5.80566855138559  6.13805715087387 6.31099425574643  C 6.27193142750368 7.04754282824777  6.32521143309814 7.99723425109397  6.28699428944786 8.17627426325294  C 6.27842285695794 8.20717712082344  6.26706286099708 8.23485712513849  6.25609143187731 8.26338283638257  C 6.15316571342481 8.52939427517745  6.08031999591728 8.81266283046927  6.23613715312315 9.59225141252064  C 6.41312001254997 10.4760456874015  6.68900573085165 10.9399085445531  6.89206858194918 11.1751314219678  C 6.96406859252775 11.7220114194246  7.16589714751871 12.331519988648  7.33641142779465 12.6944914297759  C 7.46132570509345 12.9597714354955  7.51952000013802 13.3203200073535  7.51952000013802 13.8305371508609  C 7.51952000013802 14.3050285708981  7.50203429126049 14.3106742934234  7.39501713998358 14.344091443814  C 6.01401143080729 14.7518400089568  3.81590857870126 15.5460571631678  2.99643428944503 15.9049371491348  C 1.64834286762806 14.3091200037225  0.833325727733844 12.2485028706794  0.833325727733844 10  C 0.833325727733844 4.94548572063541  4.94548572063542 0.833348578037228  10 0.833348578037228  C 15.0545142793646 0.833348578037228  19.1666514219628 4.945462870332  19.1666514219628 10  Z " fill-rule="nonzero" fill="#ffffff" stroke="none" transform="matrix(1 0 0 1 1150 29 )" />
  </g>
</svg>