<?xml version="1.0" encoding="utf-8"?>
<svg version="1.1" xmlns:xlink="http://www.w3.org/1999/xlink" width="139px" height="35px" xmlns="http://www.w3.org/2000/svg">
  <g transform="matrix(1 0 0 1 -966 -67 )">
    <path d="M 967 70  A 2 2 0 0 1 969 68 L 1102 68  A 2 2 0 0 1 1104 70 L 1104 99  A 2 2 0 0 1 1102 101 L 969 101  A 2 2 0 0 1 967 99 L 967 70  Z " fill-rule="nonzero" fill="#ffffff" stroke="none" />
    <path d="M 966.5 70  A 2.5 2.5 0 0 1 969 67.5 L 1102 67.5  A 2.5 2.5 0 0 1 1104.5 70 L 1104.5 99  A 2.5 2.5 0 0 1 1102 101.5 L 969 101.5  A 2.5 2.5 0 0 1 966.5 99 L 966.5 70  Z " stroke-width="1" stroke="#0099ff" fill="none" stroke-opacity="0.988235294117647" />
  </g>
</svg>