<?xml version="1.0" encoding="utf-8"?>
<svg version="1.1" xmlns:xlink="http://www.w3.org/1999/xlink" width="86px" height="35px" xmlns="http://www.w3.org/2000/svg">
  <g transform="matrix(1 0 0 1 -13 -119 )">
    <path d="M 14 122  A 2 2 0 0 1 16 120 L 96 120  A 2 2 0 0 1 98 122 L 98 151  A 2 2 0 0 1 96 153 L 16 153  A 2 2 0 0 1 14 151 L 14 122  Z " fill-rule="nonzero" fill="#ffffff" stroke="none" />
    <path d="M 13.5 122  A 2.5 2.5 0 0 1 16 119.5 L 96 119.5  A 2.5 2.5 0 0 1 98.5 122 L 98.5 151  A 2.5 2.5 0 0 1 96 153.5 L 16 153.5  A 2.5 2.5 0 0 1 13.5 151 L 13.5 122  Z " stroke-width="1" stroke="#0099ff" fill="none" stroke-opacity="0.988235294117647" />
  </g>
</svg>