<?xml version="1.0" encoding="utf-8"?>
<svg version="1.1" xmlns:xlink="http://www.w3.org/1999/xlink" width="100px" height="42px" xmlns="http://www.w3.org/2000/svg">
  <g transform="matrix(1 0 0 1 -481 -12 )">
    <path d="M 482 16  A 3 3 0 0 1 485 13 L 577 13  A 3 3 0 0 1 580 16 L 580 50  A 3 3 0 0 1 577 53 L 485 53  A 3 3 0 0 1 482 50 L 482 16  Z " fill-rule="nonzero" fill="#ff3399" stroke="none" fill-opacity="0.0980392156862745" />
    <path d="M 481.5 16  A 3.5 3.5 0 0 1 485 12.5 L 577 12.5  A 3.5 3.5 0 0 1 580.5 16 L 580.5 50  A 3.5 3.5 0 0 1 577 53.5 L 485 53.5  A 3.5 3.5 0 0 1 481.5 50 L 481.5 16  Z " stroke-width="1" stroke-dasharray="9,4" stroke="#ff3399" fill="none" stroke-dashoffset="0.5" />
  </g>
</svg>