<?xml version="1.0" encoding="utf-8"?>
<svg version="1.1" xmlns:xlink="http://www.w3.org/1999/xlink" width="47px" height="47px" xmlns="http://www.w3.org/2000/svg">
  <g transform="matrix(1 0 0 1 -69 -51 )">
    <path d="M 38.73828125 19.919921875  C 39.10546875 19.552734375  39.2890625 19.09375  39.2890625 18.54296875  C 39.2890625 17.9717881944444  39.10546875 17.5026041666667  38.73828125 17.1354166666667  L 35.9537760416667 14.3815104166667  C 35.5661892361111 13.9939236111111  35.1072048611111 13.8001302083333  34.5768229166667 13.8001302083333  C 34.0464409722222 13.8001302083333  33.5874565972222 13.9939236111111  33.1998697916667 14.3815104166667  L 20.7154947916667 26.8352864583333  L 13.8001302083333 19.919921875  C 13.4125434027778 19.5323350694444  12.9535590277778 19.3385416666667  12.4231770833333 19.3385416666667  C 11.8927951388889 19.3385416666667  11.4338107638889 19.5323350694444  11.0462239583333 19.919921875  L 8.26171875 22.673828125  C 7.89453125 23.041015625  7.7109375 23.5101996527778  7.7109375 24.0813802083333  C 7.7109375 24.6321614583333  7.89453125 25.0911458333333  8.26171875 25.4583333333333  L 19.3385416666667 36.53515625  C 19.7261284722222 36.9227430555556  20.1851128472222 37.1165364583333  20.7154947916667 37.1165364583333  C 21.2662760416667 37.1165364583333  21.7354600694444 36.9227430555556  22.123046875 36.53515625  L 38.73828125 19.919921875  Z M 43.8483072916667 11.7041015625  C 45.9494357638889 15.3045789930556  47 19.2365451388889  47 23.5  C 47 27.7634548611111  45.9494357638889 31.6954210069444  43.8483072916667 35.2958984375  C 41.7471788194445 38.8963758680556  38.8963758680556 41.7471788194444  35.2958984375 43.8483072916667  C 31.6954210069445 45.9494357638889  27.7634548611111 47  23.5 47  C 19.2365451388889 47  15.3045789930556 45.9494357638889  11.7041015625 43.8483072916667  C 8.10362413194444 41.7471788194444  5.25282118055556 38.8963758680556  3.15169270833333 35.2958984375  C 1.05056423611111 31.6954210069444  0 27.7634548611111  0 23.5  C 0 19.2365451388889  1.05056423611111 15.3045789930556  3.15169270833333 11.7041015625  C 5.25282118055556 8.10362413194444  8.10362413194444 5.25282118055555  11.7041015625 3.15169270833333  C 15.3045789930556 1.05056423611111  19.2365451388889 0  23.5 0  C 27.7634548611111 0  31.6954210069445 1.05056423611111  35.2958984375 3.15169270833333  C 38.8963758680556 5.25282118055555  41.7471788194445 8.10362413194444  43.8483072916667 11.7041015625  Z " fill-rule="nonzero" fill="#0099ff" stroke="none" transform="matrix(1 0 0 1 69 51 )" />
  </g>
</svg>