<?xml version="1.0" encoding="utf-8"?>
<svg version="1.1" xmlns:xlink="http://www.w3.org/1999/xlink" width="80px" height="35px" xmlns="http://www.w3.org/2000/svg">
  <g transform="matrix(1 0 0 1 -803 -783 )">
    <path d="M 804 786  A 2 2 0 0 1 806 784 L 880 784  A 2 2 0 0 1 882 786 L 882 815  A 2 2 0 0 1 880 817 L 806 817  A 2 2 0 0 1 804 815 L 804 786  Z " fill-rule="nonzero" fill="#ffffff" stroke="none" />
    <path d="M 803.5 786  A 2.5 2.5 0 0 1 806 783.5 L 880 783.5  A 2.5 2.5 0 0 1 882.5 786 L 882.5 815  A 2.5 2.5 0 0 1 880 817.5 L 806 817.5  A 2.5 2.5 0 0 1 803.5 815 L 803.5 786  Z " stroke-width="1" stroke="#0099ff" fill="none" stroke-opacity="0.988235294117647" />
  </g>
</svg>