<?xml version="1.0" encoding="utf-8"?>
<svg version="1.1" xmlns:xlink="http://www.w3.org/1999/xlink" width="90px" height="40px" xmlns="http://www.w3.org/2000/svg">
  <g transform="matrix(1 0 0 1 -713 -913 )">
    <path d="M 714 916  A 2 2 0 0 1 716 914 L 800 914  A 2 2 0 0 1 802 916 L 802 950  A 2 2 0 0 1 800 952 L 716 952  A 2 2 0 0 1 714 950 L 714 916  Z " fill-rule="nonzero" fill="#ffffff" stroke="none" />
    <path d="M 713.5 916  A 2.5 2.5 0 0 1 716 913.5 L 800 913.5  A 2.5 2.5 0 0 1 802.5 916 L 802.5 950  A 2.5 2.5 0 0 1 800 952.5 L 716 952.5  A 2.5 2.5 0 0 1 713.5 950 L 713.5 916  Z " stroke-width="1" stroke="#cccccc" fill="none" stroke-opacity="0.698039215686274" />
  </g>
</svg>