<?xml version="1.0" encoding="utf-8"?>
<svg version="1.1" xmlns:xlink="http://www.w3.org/1999/xlink" width="246px" height="46px" xmlns="http://www.w3.org/2000/svg">
  <defs>
    <filter x="25px" y="81px" width="246px" height="46px" filterUnits="userSpaceOnUse" id="filter15">
      <feOffset dx="0" dy="0" in="SourceAlpha" result="shadowOffsetInner" />
      <feGaussianBlur stdDeviation="1.5" in="shadowOffsetInner" result="shadowGaussian" />
      <feComposite in2="shadowGaussian" operator="atop" in="SourceAlpha" result="shadowComposite" />
      <feColorMatrix type="matrix" values="0 0 0 0 0  0 0 0 0 0.474509803921569  0 0 0 0 0.996078431372549  0 0 0 0.8 0  " in="shadowComposite" />
    </filter>
    <g id="widget16">
      <path d="M 28.5 87  A 2.5 2.5 0 0 1 31 84.5 L 265 84.5  A 2.5 2.5 0 0 1 267.5 87 L 267.5 121  A 2.5 2.5 0 0 1 265 123.5 L 31 123.5  A 2.5 2.5 0 0 1 28.5 121 L 28.5 87  Z " fill-rule="nonzero" fill="#ffffff" stroke="none" />
      <path d="M 28.5 87  A 2.5 2.5 0 0 1 31 84.5 L 265 84.5  A 2.5 2.5 0 0 1 267.5 87 L 267.5 121  A 2.5 2.5 0 0 1 265 123.5 L 31 123.5  A 2.5 2.5 0 0 1 28.5 121 L 28.5 87  Z " stroke-width="1" stroke="#0079fe" fill="none" />
    </g>
  </defs>
  <g transform="matrix(1 0 0 1 -25 -81 )">
    <use xlink:href="#widget16" filter="url(#filter15)" />
    <use xlink:href="#widget16" />
  </g>
</svg>