<?xml version="1.0" encoding="utf-8"?>
<svg version="1.1" xmlns:xlink="http://www.w3.org/1999/xlink" width="96px" height="46px" xmlns="http://www.w3.org/2000/svg">
  <defs>
    <filter x="710px" y="910px" width="96px" height="46px" filterUnits="userSpaceOnUse" id="filter13">
      <feOffset dx="0" dy="0" in="SourceAlpha" result="shadowOffsetInner" />
      <feGaussianBlur stdDeviation="1.5" in="shadowOffsetInner" result="shadowGaussian" />
      <feComposite in2="shadowGaussian" operator="atop" in="SourceAlpha" result="shadowComposite" />
      <feColorMatrix type="matrix" values="0 0 0 0 0  0 0 0 0 0.474509803921569  0 0 0 0 0.996078431372549  0 0 0 0.8 0  " in="shadowComposite" />
    </filter>
    <g id="widget14">
      <path d="M 713.5 916  A 2.5 2.5 0 0 1 716 913.5 L 800 913.5  A 2.5 2.5 0 0 1 802.5 916 L 802.5 950  A 2.5 2.5 0 0 1 800 952.5 L 716 952.5  A 2.5 2.5 0 0 1 713.5 950 L 713.5 916  Z " fill-rule="nonzero" fill="#ffffff" stroke="none" />
      <path d="M 713.5 916  A 2.5 2.5 0 0 1 716 913.5 L 800 913.5  A 2.5 2.5 0 0 1 802.5 916 L 802.5 950  A 2.5 2.5 0 0 1 800 952.5 L 716 952.5  A 2.5 2.5 0 0 1 713.5 950 L 713.5 916  Z " stroke-width="1" stroke="#0079fe" fill="none" />
    </g>
  </defs>
  <g transform="matrix(1 0 0 1 -710 -910 )">
    <use xlink:href="#widget14" filter="url(#filter13)" />
    <use xlink:href="#widget14" />
  </g>
</svg>