<?xml version="1.0" encoding="utf-8"?>
<svg version="1.1" xmlns:xlink="http://www.w3.org/1999/xlink" width="15px" height="7px" xmlns="http://www.w3.org/2000/svg">
  <g transform="matrix(1 0 0 1 -318 -52 )">
    <path d="M 14.7216796875001 0.230902777777374  C 14.9072265625 0.384837962963047  15 0.567129629630017  15 0.777777777777374  C 15 0.988425925926094  14.9072265625 1.17071759259261  14.7216796875001 1.32465277777737  L 8.1591796875 6.76909722222263  C 7.97363281249989 6.92303240740739  7.75390624999989 7  7.5 7  C 7.24609375000011 7  7.02636718750011 6.92303240740739  6.8408203125 6.76909722222263  L 0.278320312499886 1.32465277777737  C 0.0927734375 1.17071759259261  0 0.988425925926094  0 0.777777777777374  C 0 0.567129629630017  0.0927734375 0.384837962963047  0.278320312499886 0.230902777777374  C 0.4638671875 0.0769675925926094  0.68359375 0  0.937499999999886 0  L 14.0625000000001 0  C 14.31640625 0  14.5361328125 0.0769675925926094  14.7216796875001 0.230902777777374  Z " fill-rule="nonzero" fill="#cccccc" stroke="none" transform="matrix(1 0 0 1 318 52 )" />
  </g>
</svg>