<?xml version="1.0" encoding="utf-8"?>
<svg version="1.1" xmlns:xlink="http://www.w3.org/1999/xlink" width="80px" height="35px" xmlns="http://www.w3.org/2000/svg">
  <g transform="matrix(1 0 0 1 -273 -278 )">
    <path d="M 273.5 281  A 2.5 2.5 0 0 1 276 278.5 L 350 278.5  A 2.5 2.5 0 0 1 352.5 281 L 352.5 310  A 2.5 2.5 0 0 1 350 312.5 L 276 312.5  A 2.5 2.5 0 0 1 273.5 310 L 273.5 281  Z " fill-rule="nonzero" fill="#ffffff" stroke="none" />
    <path d="M 273.5 281  A 2.5 2.5 0 0 1 276 278.5 L 350 278.5  A 2.5 2.5 0 0 1 352.5 281 L 352.5 310  A 2.5 2.5 0 0 1 350 312.5 L 276 312.5  A 2.5 2.5 0 0 1 273.5 310 L 273.5 281  Z " stroke-width="1" stroke="#cccccc" fill="none" />
  </g>
</svg>