<?xml version="1.0" encoding="utf-8"?>
<svg version="1.1" xmlns:xlink="http://www.w3.org/1999/xlink" width="23px" height="23px" xmlns="http://www.w3.org/2000/svg">
  <g transform="matrix(1 0 0 1 -418 -135 )">
    <path d="M 23 3.00653594771241  C 23 1.34607199397279  21.6539280060272 0  19.9934640522876 0  L 3.00653594771245 0  C 1.34607199397283 0  0 1.34607199397279  0 3.00653594771241  L 0 19.9934640522876  C 0 21.6539280060272  1.34607199397283 23  3.00653594771245 23  L 19.9934640522876 23  C 21.6539280060272 23  23 21.6539280060272  23 19.9934640522876  L 23 3.00653594771241  Z M 22 3.23202614379083  L 22 19.7679738562092  C 22.0228758169934 21.0111764705882  21.0111764705881 22.0228758169935  19.7679738562091 22  L 3.2320261437909 22  C 1.98882352941189 22.0228758169935  0.977124183006595 21.0111764705882  1 19.7679738562092  L 1 3.23202614379083  C 0.977124183006595 1.98882352941179  1.98882352941189 0.977124183006538  3.2320261437909 1  L 19.7679738562091 1  C 21.0111764705881 0.977124183006538  22.0228758169934 1.98882352941179  22 3.23202614379083  Z " fill-rule="nonzero" fill="#999999" stroke="none" transform="matrix(1 0 0 1 418 135 )" />
  </g>
</svg>