<?xml version="1.0" encoding="utf-8"?>
<svg version="1.1" xmlns:xlink="http://www.w3.org/1999/xlink" width="121px" height="46px" xmlns="http://www.w3.org/2000/svg">
  <defs>
    <filter x="153px" y="72px" width="121px" height="46px" filterUnits="userSpaceOnUse" id="filter20">
      <feOffset dx="0" dy="0" in="SourceAlpha" result="shadowOffsetInner" />
      <feGaussianBlur stdDeviation="1.5" in="shadowOffsetInner" result="shadowGaussian" />
      <feComposite in2="shadowGaussian" operator="atop" in="SourceAlpha" result="shadowComposite" />
      <feColorMatrix type="matrix" values="0 0 0 0 0  0 0 0 0 0.474509803921569  0 0 0 0 0.996078431372549  0 0 0 0.8 0  " in="shadowComposite" />
    </filter>
    <g id="widget21">
      <path d="M 156.5 78  A 2.5 2.5 0 0 1 159 75.5 L 268 75.5  A 2.5 2.5 0 0 1 270.5 78 L 270.5 112  A 2.5 2.5 0 0 1 268 114.5 L 159 114.5  A 2.5 2.5 0 0 1 156.5 112 L 156.5 78  Z " fill-rule="nonzero" fill="#ffffff" stroke="none" />
      <path d="M 156.5 78  A 2.5 2.5 0 0 1 159 75.5 L 268 75.5  A 2.5 2.5 0 0 1 270.5 78 L 270.5 112  A 2.5 2.5 0 0 1 268 114.5 L 159 114.5  A 2.5 2.5 0 0 1 156.5 112 L 156.5 78  Z " stroke-width="1" stroke="#0079fe" fill="none" />
    </g>
  </defs>
  <g transform="matrix(1 0 0 1 -153 -72 )">
    <use xlink:href="#widget21" filter="url(#filter20)" />
    <use xlink:href="#widget21" />
  </g>
</svg>