<?xml version="1.0" encoding="utf-8"?>
<svg version="1.1" xmlns:xlink="http://www.w3.org/1999/xlink" width="115px" height="40px" xmlns="http://www.w3.org/2000/svg">
  <g transform="matrix(1 0 0 1 -156 -75 )">
    <path d="M 156.5 78  A 2.5 2.5 0 0 1 159 75.5 L 268 75.5  A 2.5 2.5 0 0 1 270.5 78 L 270.5 112  A 2.5 2.5 0 0 1 268 114.5 L 159 114.5  A 2.5 2.5 0 0 1 156.5 112 L 156.5 78  Z " fill-rule="nonzero" fill="#ffffff" stroke="none" />
    <path d="M 156.5 78  A 2.5 2.5 0 0 1 159 75.5 L 268 75.5  A 2.5 2.5 0 0 1 270.5 78 L 270.5 112  A 2.5 2.5 0 0 1 268 114.5 L 159 114.5  A 2.5 2.5 0 0 1 156.5 112 L 156.5 78  Z " stroke-width="1" stroke="#0079fe" fill="none" />
  </g>
</svg>