<?xml version="1.0" encoding="utf-8"?>
<svg version="1.1" xmlns:xlink="http://www.w3.org/1999/xlink" width="240px" height="40px" xmlns="http://www.w3.org/2000/svg">
  <g transform="matrix(1 0 0 1 -171 -78 )">
    <path d="M 171.5 81  A 2.5 2.5 0 0 1 174 78.5 L 408 78.5  A 2.5 2.5 0 0 1 410.5 81 L 410.5 115  A 2.5 2.5 0 0 1 408 117.5 L 174 117.5  A 2.5 2.5 0 0 1 171.5 115 L 171.5 81  Z " fill-rule="nonzero" fill="#ffffff" stroke="none" />
    <path d="M 171.5 81  A 2.5 2.5 0 0 1 174 78.5 L 408 78.5  A 2.5 2.5 0 0 1 410.5 81 L 410.5 115  A 2.5 2.5 0 0 1 408 117.5 L 174 117.5  A 2.5 2.5 0 0 1 171.5 115 L 171.5 81  Z " stroke-width="1" stroke="#d7d7d7" fill="none" />
  </g>
</svg>