<?xml version="1.0" encoding="utf-8"?>
<svg version="1.1" xmlns:xlink="http://www.w3.org/1999/xlink" width="47px" height="47px" xmlns="http://www.w3.org/2000/svg">
  <g transform="matrix(1 0 0 1 -373 -72 )">
    <path d="M 396.5 73  C 409.1 73  419 82.9  419 95.5  C 419 108.1  409.1 118  396.5 118  C 383.9 118  374 108.1  374 95.5  C 374 82.9  383.9 73  396.5 73  Z " fill-rule="nonzero" fill="#ffffff" stroke="none" />
    <path d="M 396.5 73  C 409.1 73  419 82.9  419 95.5  C 419 108.1  409.1 118  396.5 118  C 383.9 118  374 108.1  374 95.5  C 374 82.9  383.9 73  396.5 73  Z " stroke-width="2" stroke="#e4e4e4" fill="none" />
  </g>
</svg>