<?xml version="1.0" encoding="utf-8"?>
<svg version="1.1" xmlns:xlink="http://www.w3.org/1999/xlink" width="741px" height="138px" xmlns="http://www.w3.org/2000/svg">
  <defs>
    <filter x="130px" y="1177px" width="741px" height="138px" filterUnits="userSpaceOnUse" id="filter18">
      <feOffset dx="0" dy="0" in="SourceAlpha" result="shadowOffsetInner" />
      <feGaussianBlur stdDeviation="1.5" in="shadowOffsetInner" result="shadowGaussian" />
      <feComposite in2="shadowGaussian" operator="atop" in="SourceAlpha" result="shadowComposite" />
      <feColorMatrix type="matrix" values="0 0 0 0 0  0 0 0 0 0.474509803921569  0 0 0 0 0.996078431372549  0 0 0 0.8 0  " in="shadowComposite" />
    </filter>
    <g id="widget19">
      <path d="M 133.5 1183  A 2.5 2.5 0 0 1 136 1180.5 L 865 1180.5  A 2.5 2.5 0 0 1 867.5 1183 L 867.5 1309  A 2.5 2.5 0 0 1 865 1311.5 L 136 1311.5  A 2.5 2.5 0 0 1 133.5 1309 L 133.5 1183  Z " fill-rule="nonzero" fill="#ffffff" stroke="none" />
      <path d="M 133.5 1183  A 2.5 2.5 0 0 1 136 1180.5 L 865 1180.5  A 2.5 2.5 0 0 1 867.5 1183 L 867.5 1309  A 2.5 2.5 0 0 1 865 1311.5 L 136 1311.5  A 2.5 2.5 0 0 1 133.5 1309 L 133.5 1183  Z " stroke-width="1" stroke="#0079fe" fill="none" />
    </g>
  </defs>
  <g transform="matrix(1 0 0 1 -130 -1177 )">
    <use xlink:href="#widget19" filter="url(#filter18)" />
    <use xlink:href="#widget19" />
  </g>
</svg>