<?xml version="1.0" encoding="utf-8"?>
<svg version="1.1" xmlns:xlink="http://www.w3.org/1999/xlink" width="735px" height="132px" xmlns="http://www.w3.org/2000/svg">
  <g transform="matrix(1 0 0 1 -133 -1180 )">
    <path d="M 133.5 1183  A 2.5 2.5 0 0 1 136 1180.5 L 865 1180.5  A 2.5 2.5 0 0 1 867.5 1183 L 867.5 1309  A 2.5 2.5 0 0 1 865 1311.5 L 136 1311.5  A 2.5 2.5 0 0 1 133.5 1309 L 133.5 1183  Z " fill-rule="nonzero" fill="#ffffff" stroke="none" />
    <path d="M 133.5 1183  A 2.5 2.5 0 0 1 136 1180.5 L 865 1180.5  A 2.5 2.5 0 0 1 867.5 1183 L 867.5 1309  A 2.5 2.5 0 0 1 865 1311.5 L 136 1311.5  A 2.5 2.5 0 0 1 133.5 1309 L 133.5 1183  Z " stroke-width="1" stroke="#0079fe" fill="none" />
  </g>
</svg>