<?xml version="1.0" encoding="utf-8"?>
<svg version="1.1" xmlns:xlink="http://www.w3.org/1999/xlink" width="28px" height="30px" xmlns="http://www.w3.org/2000/svg">
  <g transform="matrix(1 0 0 1 -590 -72 )">
    <path d="M 16.5797101449275 13.9111556446226  C 16.7729468599034 14.1059897572924  16.8695652173913 14.3300489868626  16.8695652173913 14.5833333333334  C 16.8695652173913 14.8366176798041  16.7729468599034 15.0606769093744  16.5797101449275 15.2555110220441  L 3.07246376811588 28.874415497662  C 2.87922705314008 29.0692496103319  2.65700483091791 29.1666666666667  2.40579710144925 29.1666666666667  C 2.15458937198059 29.1666666666667  1.93236714975842 29.0692496103319  1.73913043478262 28.874415497662  L 0.289855072463752 27.4131596526387  C 0.0966183574879551 27.2183255399689  0 26.9942663103986  0 26.7409819639279  C 0 26.4876976174572  0.0966183574879551 26.263638387887  0.289855072463752 26.0688042752171  L 11.6811594202899 14.5833333333334  L 0.289855072463752 3.09786239144955  C 0.0966183574879551 2.90302827877974  0 2.67896904920951  0 2.42568470273886  C 0 2.1724003562681  0.0966183574879551 1.94834112669787  0.289855072463752 1.75350701402806  L 1.73913043478262 0.292251169004658  C 1.93236714975842 0.097417056334848  2.15458937198059 0  2.40579710144925 0  C 2.65700483091791 0  2.87922705314008 0.097417056334848  3.07246376811588 0.292251169004658  L 16.5797101449275 13.9111556446226  Z M 27.7101449275362 13.9111556446226  C 27.903381642512 14.1059897572924  28 14.3300489868626  28 14.5833333333334  C 28 14.8366176798041  27.903381642512 15.0606769093744  27.7101449275362 15.2555110220441  L 14.2028985507246 28.874415497662  C 14.0096618357488 29.0692496103319  13.7874396135265 29.1666666666667  13.536231884058 29.1666666666667  C 13.2850241545893 29.1666666666667  13.0628019323672 29.0692496103319  12.8695652173913 28.874415497662  L 11.4202898550725 27.4131596526387  C 11.2270531400966 27.2183255399689  11.1304347826087 26.9942663103986  11.1304347826087 26.7409819639279  C 11.1304347826087 26.4876976174572  11.2270531400966 26.263638387887  11.4202898550725 26.0688042752171  L 22.8115942028986 14.5833333333334  L 11.4202898550725 3.09786239144955  C 11.2270531400966 2.90302827877974  11.1304347826087 2.67896904920951  11.1304347826087 2.42568470273886  C 11.1304347826087 2.1724003562681  11.2270531400966 1.94834112669787  11.4202898550725 1.75350701402806  L 12.8695652173913 0.292251169004658  C 13.0628019323672 0.097417056334848  13.2850241545893 0  13.536231884058 0  C 13.7874396135265 0  14.0096618357488 0.097417056334848  14.2028985507246 0.292251169004658  L 27.7101449275362 13.9111556446226  Z " fill-rule="nonzero" fill="#a1a1a1" stroke="none" transform="matrix(1 0 0 1 590 72 )" />
  </g>
</svg>