<?xml version="1.0" standalone="no"?><!DOCTYPE svg PUBLIC "-//W3C//DTD SVG 1.1//EN" "http://www.w3.org/Graphics/SVG/1.1/DTD/svg11.dtd"><svg t="1603876735153" class="icon" viewBox="0 0 1024 1024" version="1.1" xmlns="http://www.w3.org/2000/svg" p-id="3059" xmlns:xlink="http://www.w3.org/1999/xlink" width="32" height="32"><defs><style type="text/css"></style></defs><path d="M587.946667 938.666667H180.053333A94.72 94.72 0 0 1 85.333333 842.666667V180.053333A94.72 94.72 0 0 1 180.053333 85.333333h662.613334A94.72 94.72 0 0 1 938.666667 180.053333v409.173334a31.573333 31.573333 0 0 1-63.146667 0V180.053333a31.573333 31.573333 0 0 0-31.573333-31.573333H180.053333a31.573333 31.573333 0 0 0-31.573333 31.573333v662.613334a31.573333 31.573333 0 0 0 31.573333 31.573333h407.893334a31.573333 31.573333 0 1 1 0 63.146667z m0 0" fill="#5780F7" p-id="3060"></path><path d="M701.866667 337.92H261.546667a31.573333 31.573333 0 0 1 0-63.146667h440.32a31.573333 31.573333 0 1 1 0 63.146667z m-298.666667 205.226667H261.546667a31.573333 31.573333 0 0 1 0-63.146667h140.8a31.573333 31.573333 0 0 1 0 63.146667z m0 204.8H261.546667a31.573333 31.573333 0 0 1 0-63.146667h140.8a31.573333 31.573333 0 0 1 0 63.146667z m232.533333 53.76a170.666667 170.666667 0 1 1 170.666667-170.666667 170.666667 170.666667 0 0 1-170.666667 170.666667z m0-276.053334a106.666667 106.666667 0 1 0 106.666667 106.666667 106.666667 106.666667 0 0 0-106.666667-106.666667z m0 0" fill="#5780F7" p-id="3061"></path><path d="M828.586667 872.533333l-108.8-108.8a31.573333 31.573333 0 0 1 42.666666-42.666666l108.8 108.8a31.573333 31.573333 0 0 1-42.666666 42.666666z m0 0" fill="#5780F7" p-id="3062"></path></svg>