<?xml version="1.0" encoding="utf-8"?>
<svg version="1.1" xmlns:xlink="http://www.w3.org/1999/xlink" width="35px" height="25px" xmlns="http://www.w3.org/2000/svg">
  <g transform="matrix(1 0 0 1 -367 -11 )">
    <path d="M 367.5 14  A 2.5 2.5 0 0 1 370 11.5 L 399 11.5  A 2.5 2.5 0 0 1 401.5 14 L 401.5 33  A 2.5 2.5 0 0 1 399 35.5 L 370 35.5  A 2.5 2.5 0 0 1 367.5 33 L 367.5 14  Z " fill-rule="nonzero" fill="#ffffff" stroke="none" />
    <path d="M 367.5 14  A 2.5 2.5 0 0 1 370 11.5 L 399 11.5  A 2.5 2.5 0 0 1 401.5 14 L 401.5 33  A 2.5 2.5 0 0 1 399 35.5 L 370 35.5  A 2.5 2.5 0 0 1 367.5 33 L 367.5 14  Z " stroke-width="1" stroke="#d7d7d7" fill="none" />
  </g>
</svg>