<?xml version="1.0" standalone="no"?><!DOCTYPE svg PUBLIC "-//W3C//DTD SVG 1.1//EN" "http://www.w3.org/Graphics/SVG/1.1/DTD/svg11.dtd"><svg t="1611627331191" class="icon" viewBox="0 0 1024 1024" version="1.1" xmlns="http://www.w3.org/2000/svg" p-id="2532" xmlns:xlink="http://www.w3.org/1999/xlink" width="32" height="32"><defs><style type="text/css"></style></defs><path d="M512 512m-512 0a512 512 0 1 0 1024 0 512 512 0 1 0-1024 0Z" fill="#E9F4FF" p-id="2533"></path><path d="M619.6224 414.8224c12.639086 0 22.996114 10.3424 22.996114 22.996114l-0.014628 36.7616h34.494171c44.821943 0 80.457143 37.946514 80.457143 82.768457 0 12.639086-10.3424 22.981486-22.996114 22.981486a23.054629 23.054629 0 0 1-22.981486-22.981486c0-20.6848-14.9504-36.776229-34.479543-36.776228l-34.494171-0.014629v73.567086h34.494171c44.821943 0 80.457143 37.931886 80.457143 82.753829 0 44.836571-35.6352 82.768457-80.457143 82.768457l-34.494171-0.014629V782.628571c0 12.639086-10.3424 22.981486-22.966857 22.981486a23.054629 23.054629 0 0 1-22.996115-22.981486l-0.014628-22.996114h-34.464915c-44.836571 0-80.457143-37.917257-80.457142-82.753828 0-12.639086 10.3424-22.981486 22.981485-22.981486s22.981486 10.3424 22.981486 22.981486c0 20.699429 14.9504 36.790857 34.494171 36.790857l34.464915-0.014629v-73.552457h-34.464915c-44.836571 0-80.457143-37.931886-80.457142-82.753829 0-45.9776 35.620571-82.753829 80.457142-82.753828l34.464915-0.014629v-36.7616c0-12.653714 10.357029-22.996114 22.996114-22.996114zM640.3072 219.428571c48.274286 0 87.361829 39.072914 87.361829 87.3472v96.548572c0 12.653714-10.3424 22.996114-22.996115 22.996114A23.054629 23.054629 0 0 1 681.691429 403.309714v-96.548571a41.208686 41.208686 0 0 0-41.384229-41.3696h-289.645714a41.208686 41.208686 0 0 0-41.3696 41.3696v383.8976a41.208686 41.208686 0 0 0 41.3696 41.384228h96.548571c12.653714 0 22.996114 10.3424 22.996114 22.981486 0 12.653714-10.3424 22.996114-22.996114 22.996114h-96.548571A87.317943 87.317943 0 0 1 263.314286 690.673371V306.775771c0-48.274286 39.072914-87.3472 87.3472-87.3472h289.645714z m2.296686 494.226286h34.494171c19.529143 0 34.479543-17.232457 34.479543-36.776228 0-19.529143-14.9504-36.776229-34.479543-36.776229h-34.494171v73.552457z m-45.9776-119.530057v-73.567086h-34.464915c-19.543771 0-34.494171 17.261714-34.494171 36.790857 0 19.543771 14.9504 36.776229 34.494171 36.776229h34.464915z m-149.416229-128.731429c9.201371 0 17.247086 8.045714 17.247086 17.247086 0 9.186743-8.045714 17.232457-17.247086 17.232457h-64.365714c-9.186743 0-17.232457-8.045714-17.232457-17.232457 0-9.201371 8.045714-17.247086 17.232457-17.247086h64.365714z m128.731429-111.484342c9.201371 0 17.247086 8.045714 17.247085 17.232457 0 9.201371-8.045714 17.247086-17.247085 17.247085h-193.097143c-9.186743 0-17.232457-8.045714-17.232457-17.247085 0-9.186743 8.045714-17.232457 17.232457-17.232457h193.097143z" fill="#5F96F5" p-id="2534"></path></svg>