<?xml version="1.0" encoding="utf-8"?>
<svg version="1.1" xmlns:xlink="http://www.w3.org/1999/xlink" width="35px" height="10px" preserveAspectRatio="xMinYMid meet" viewBox="1176 753  35 8" xmlns="http://www.w3.org/2000/svg">
  <path d="M 1176 757  L 1201.57462686567 757  A 4.42537313432831 4.42537313432831 0 0 1 1206 761.425373134328 L 1206 765.263681592039  A 0.587064676617842 0.587064676617842 0 0 1 1205.41293532338 765.850746268657 A 0.587064676617729 0.587064676617729 0 0 1 1204.82587064676 765.263681592039 L 1204.82587064676 760  A 3 3 0 0 0 1207.82587064676 757 A 3 3 0 0 0 1204.82587064676 754 L 1204.82587064676 463.912935323382  A 3.91293532338216 3.91293532338216 0 0 0 1200.91293532338 460 A 3.91293532338204 3.91293532338204 0 0 1 1197 456.087064676618 L 1197 448  " stroke-width="2" stroke="#0099cc" fill="none" />
  <path d="M 1204.6 449  L 1197 442  L 1189.4 449  L 1204.6 449  Z " fill-rule="nonzero" fill="#0099cc" stroke="none" />
</svg>